<svg width="76" height="76" viewBox="0 0 76 76" fill="none" xmlns="http://www.w3.org/2000/svg">
<path d="M69.6667 23.0627C69.6667 31.429 62.5766 38.212 53.8334 38.212C52.8032 38.212 51.7825 38.117 50.7712 37.927C50.0429 37.7908 49.6787 37.7243 49.4254 37.7623C49.1721 37.8003 48.8111 37.9903 48.0954 38.3735C46.0464 39.4656 43.6883 39.8328 41.4042 39.4153C42.2773 38.3366 42.8692 37.0581 43.1269 35.6945C43.2852 34.8553 42.8926 34.0415 42.3036 33.4462C39.5555 30.6882 38.0086 26.956 38.0001 23.0627C38.0001 14.6995 45.0902 7.9165 53.8334 7.9165C62.5766 7.9165 69.6667 14.6995 69.6667 23.0627ZM49.0581 23.7498H49.0834H49.0581ZM58.5581 23.7498H58.5834H58.5581ZM23.7564 68.0831H14.9404C13.9176 68.0831 12.8884 67.9375 11.9479 67.5353C8.88889 66.2211 7.33406 64.4826 6.61206 63.3965C6.41611 63.0956 6.31984 62.7407 6.33689 62.3821C6.35394 62.0234 6.48345 61.6792 6.70706 61.3983C10.2537 56.6863 18.4871 53.8427 23.7722 53.8427C29.0542 53.8427 37.2749 56.6863 40.8216 61.3983C41.2681 61.9905 41.3282 62.779 40.9166 63.3965C40.1914 64.4826 38.6366 66.2211 35.5776 67.5353C34.6272 67.9177 33.6093 68.1041 32.5851 68.0831H23.7564ZM32.5724 37.3317C32.5707 38.4861 32.3417 39.6288 31.8984 40.6947C31.4551 41.7606 30.8062 42.7288 29.9887 43.5439C29.1713 44.359 28.2012 45.0051 27.1341 45.4454C26.0669 45.8856 24.9235 46.1113 23.7691 46.1097C21.4387 46.1113 19.2031 45.1877 17.5535 43.5416C15.9039 41.8956 14.9754 39.662 14.9721 37.3317C14.9733 36.1772 15.2019 35.0344 15.6448 33.9683C16.0878 32.9023 16.7363 31.9339 17.5535 31.1185C18.3707 30.3031 19.3405 29.6566 20.4075 29.216C21.4745 28.7754 22.6178 28.5492 23.7722 28.5505C24.9266 28.5492 26.07 28.7754 27.137 29.216C28.204 29.6566 29.1738 30.3031 29.991 31.1185C30.8081 31.9339 31.4567 32.9023 31.8996 33.9683C32.3425 35.0344 32.5712 36.1772 32.5724 37.3317Z" fill="#FFD700"/>
<path d="M49.0581 23.7498H49.0834M58.5581 23.7498H58.5834M69.6667 23.0627C69.6667 31.429 62.5766 38.212 53.8334 38.212C52.8032 38.212 51.7825 38.117 50.7712 37.927C50.0429 37.7908 49.6787 37.7243 49.4254 37.7623C49.1721 37.8003 48.8111 37.9903 48.0954 38.3735C46.0464 39.4656 43.6883 39.8328 41.4042 39.4153C42.2773 38.3366 42.8692 37.0581 43.1269 35.6945C43.2852 34.8553 42.8926 34.0415 42.3036 33.4462C39.5555 30.6882 38.0086 26.956 38.0001 23.0627C38.0001 14.6995 45.0902 7.9165 53.8334 7.9165C62.5766 7.9165 69.6667 14.6995 69.6667 23.0627ZM23.7564 68.0831H14.9404C13.9176 68.0831 12.8884 67.9375 11.9479 67.5353C8.88889 66.2211 7.33406 64.4826 6.61206 63.3965C6.41611 63.0956 6.31984 62.7407 6.33689 62.3821C6.35394 62.0234 6.48345 61.6792 6.70706 61.3983C10.2537 56.6863 18.4871 53.8427 23.7722 53.8427C29.0542 53.8427 37.2749 56.6863 40.8216 61.3983C41.2681 61.9905 41.3282 62.779 40.9166 63.3965C40.1914 64.4826 38.6366 66.2211 35.5776 67.5353C34.6272 67.9177 33.6093 68.1041 32.5851 68.0831H23.7564ZM32.5724 37.3317C32.5707 38.4861 32.3417 39.6288 31.8984 40.6947C31.4551 41.7606 30.8062 42.7288 29.9887 43.5439C29.1713 44.359 28.2012 45.0051 27.1341 45.4454C26.0669 45.8856 24.9235 46.1113 23.7691 46.1097C21.4387 46.1113 19.2031 45.1877 17.5535 43.5416C15.9039 41.8956 14.9754 39.662 14.9721 37.3317C14.9733 36.1773 15.2019 35.0344 15.6448 33.9683C16.0878 32.9023 16.7363 31.9339 17.5535 31.1185C18.3707 30.3031 19.3405 29.6566 20.4075 29.216C21.4745 28.7754 22.6178 28.5492 23.7722 28.5505C24.9266 28.5492 26.07 28.7754 27.137 29.216C28.204 29.6566 29.1738 30.3031 29.991 31.1185C30.8081 31.9339 31.4567 32.9023 31.8996 33.9683C32.3425 35.0344 32.5712 36.1773 32.5724 37.3317Z" stroke="#FFD700" stroke-width="4.5" stroke-linecap="round" stroke-linejoin="round"/>
</svg>
