<svg width="32" height="32" viewBox="0 0 32 32" fill="none" xmlns="http://www.w3.org/2000/svg">
<g clip-path="url(#clip0_330_758)">
<rect width="32" height="32" rx="16" fill="white"/>
<g filter="url(#filter0_dddd_330_758)">
<g clip-path="url(#clip1_330_758)">
<path fill-rule="evenodd" clip-rule="evenodd" d="M27.7971 14.033L27.968 14.2529C28.413 14.8404 29.0006 15.6195 28.9998 16.3939C29.0006 17.0274 28.6076 17.664 28.2207 18.1964L27.968 18.535C27.3674 19.3286 26.4796 20.267 25.3006 21.1165C22.9742 22.7933 19.5202 24.1163 14.9952 23.2897C14.8366 23.4192 14.6903 23.564 14.5478 23.7126L14.3379 23.9378C14.0154 24.2848 13.6929 24.6318 13.2747 24.8632C12.6236 25.2232 11.7717 25.0378 11.0478 24.7919L10.6978 24.6671L10.2565 24.4955C9.43994 24.1661 8.41652 23.6421 8.41728 22.6716C8.41652 22.0901 8.72293 21.5447 9.04926 21.0238L9.17183 20.8292C9.33074 20.588 9.47749 20.339 9.61153 20.0831C9.68558 19.9325 9.75784 19.7775 9.82832 19.6181C9.71938 19.6293 9.60995 19.6349 9.50045 19.635C8.97189 19.635 8.39277 19.4251 7.93852 19.2298C7.44366 19.0153 6.91969 18.7364 6.44705 18.466L6.20575 18.3259L5.7492 18.0516L5.34167 17.7973L4.86136 17.4855L4.56568 17.2863C4.41943 17.1858 4.29983 17.0512 4.21721 16.8941C4.13459 16.737 4.09141 16.5622 4.09141 16.3847C4.09141 16.2072 4.13459 16.0324 4.21721 15.8754C4.29983 15.7183 4.41943 15.5837 4.56568 15.4831L4.96171 15.2188L5.61437 14.8021L6.10004 14.5064L6.44782 14.3027C6.91969 14.033 7.44366 13.7542 7.93852 13.5412C8.39277 13.3443 8.97189 13.1345 9.50046 13.1345L9.62072 13.1368L9.59161 13.0678C9.5104 12.8871 9.42303 12.7093 9.32963 12.5346L9.18255 12.2573C8.81179 11.5649 8.41652 10.8233 8.41729 10.1163C8.41652 9.2591 9.21319 8.75198 9.96237 8.41646L10.2565 8.29083L10.6985 8.12001L11.0486 7.99514C11.7717 7.75001 12.6236 7.56463 13.2747 7.92467C13.6194 8.11617 13.9028 8.39041 14.1756 8.67844L14.3387 8.85233C14.5501 9.07908 14.76 9.30582 14.9944 9.49886C19.5202 8.67155 22.9742 9.99448 25.3006 11.6713C26.2353 12.3426 27.0751 13.137 27.7971 14.033ZM10.5714 16.2262C10.5402 16.0163 10.448 15.8202 10.3064 15.6623C10.1648 15.5043 9.97991 15.3914 9.77469 15.3376L9.63374 15.31L9.49892 15.3023L9.28214 15.3276C8.79494 15.4165 8.28323 15.7014 7.82284 15.9856L7.38161 16.2614L7.17938 16.3855L7.36093 16.4966L7.75467 16.7432C8.30085 17.0826 8.92593 17.4396 9.49969 17.4694C9.76208 17.4695 10.0156 17.3743 10.2131 17.2016C10.4106 17.0289 10.5387 16.7903 10.5737 16.5303L10.5829 16.3955L10.5821 16.3594L10.5714 16.2262ZM21.4161 16.3863C21.4161 16.1017 21.3601 15.82 21.2513 15.5571C21.1425 15.2942 20.9829 15.0553 20.7817 14.854C20.5806 14.6528 20.3417 14.4932 20.0789 14.3842C19.816 14.2753 19.5343 14.2192 19.2497 14.2192C18.9652 14.2191 18.6834 14.2751 18.4205 14.3839C18.1577 14.4928 17.9188 14.6523 17.7175 14.8535C17.5163 15.0547 17.3567 15.2935 17.2477 15.5563C17.1388 15.8192 17.0827 16.101 17.0826 16.3855C17.0825 16.9601 17.3107 17.5113 17.717 17.9177C18.1233 18.3241 18.6743 18.5525 19.249 18.5526C19.8236 18.5527 20.3748 18.3245 20.7812 17.9182C21.1876 17.512 21.416 16.9609 21.4161 16.3863Z" fill="#FCB303"/>
</g>
</g>
</g>
<defs>
<filter id="filter0_dddd_330_758" x="-12.3848" y="-4" width="56.7695" height="72.7695" filterUnits="userSpaceOnUse" color-interpolation-filters="sRGB">
<feFlood flood-opacity="0" result="BackgroundImageFix"/>
<feColorMatrix in="SourceAlpha" type="matrix" values="0 0 0 0 0 0 0 0 0 0 0 0 0 0 0 0 0 0 127 0" result="hardAlpha"/>
<feOffset dy="1"/>
<feGaussianBlur stdDeviation="1.5"/>
<feColorMatrix type="matrix" values="0 0 0 0 0.196078 0 0 0 0 0.141176 0 0 0 0 1 0 0 0 0.1 0"/>
<feBlend mode="normal" in2="BackgroundImageFix" result="effect1_dropShadow_330_758"/>
<feColorMatrix in="SourceAlpha" type="matrix" values="0 0 0 0 0 0 0 0 0 0 0 0 0 0 0 0 0 0 127 0" result="hardAlpha"/>
<feOffset dy="6"/>
<feGaussianBlur stdDeviation="3"/>
<feColorMatrix type="matrix" values="0 0 0 0 0.196078 0 0 0 0 0.141176 0 0 0 0 1 0 0 0 0.09 0"/>
<feBlend mode="normal" in2="effect1_dropShadow_330_758" result="effect2_dropShadow_330_758"/>
<feColorMatrix in="SourceAlpha" type="matrix" values="0 0 0 0 0 0 0 0 0 0 0 0 0 0 0 0 0 0 127 0" result="hardAlpha"/>
<feOffset dy="13"/>
<feGaussianBlur stdDeviation="4"/>
<feColorMatrix type="matrix" values="0 0 0 0 0.196078 0 0 0 0 0.141176 0 0 0 0 1 0 0 0 0.05 0"/>
<feBlend mode="normal" in2="effect2_dropShadow_330_758" result="effect3_dropShadow_330_758"/>
<feColorMatrix in="SourceAlpha" type="matrix" values="0 0 0 0 0 0 0 0 0 0 0 0 0 0 0 0 0 0 127 0" result="hardAlpha"/>
<feOffset dy="24"/>
<feGaussianBlur stdDeviation="5"/>
<feColorMatrix type="matrix" values="0 0 0 0 0.196078 0 0 0 0 0.141176 0 0 0 0 1 0 0 0 0.01 0"/>
<feBlend mode="normal" in2="effect3_dropShadow_330_758" result="effect4_dropShadow_330_758"/>
<feBlend mode="normal" in="SourceGraphic" in2="effect4_dropShadow_330_758" result="shape"/>
</filter>
<clipPath id="clip0_330_758">
<rect width="32" height="32" rx="16" fill="white"/>
</clipPath>
<clipPath id="clip1_330_758">
<rect width="26" height="26" fill="white" transform="translate(16 -2) rotate(45)"/>
</clipPath>
</defs>
</svg>
