<svg width="60" height="60" viewBox="0 0 60 60" fill="none" xmlns="http://www.w3.org/2000/svg">
<path d="M47.5 26.25L53.75 37.5L47.5 38.75V46.25H43.75L36.25 45L35 53.75H16.25L13.75 40.7738C9.9 37.1288 7.5 31.97 7.5 26.25C7.5 15.2038 16.4537 6.25 27.5 6.25C38.5462 6.25 47.5 15.2038 47.5 26.25Z" fill="#FFD700" stroke="#FFD700" stroke-width="2" stroke-linecap="round" stroke-linejoin="round"/>
<path d="M21.25 23.75C21.25 22.5139 21.6166 21.3055 22.3033 20.2777C22.9901 19.2499 23.9662 18.4488 25.1082 17.9758C26.2503 17.5027 27.5069 17.3789 28.7193 17.6201C29.9317 17.8613 31.0453 18.4565 31.9194 19.3306C32.7935 20.2047 33.3887 21.3183 33.6299 22.5307C33.8711 23.7431 33.7473 24.9997 33.2742 26.1418C32.8012 27.2838 32.0001 28.2599 30.9723 28.9467C29.9445 29.6334 28.7361 30 27.5 30V33.75M27.5 41.25V42.5V41.25Z" fill="#FFD700"/>
<path d="M21.25 23.75C21.25 22.5139 21.6166 21.3055 22.3033 20.2777C22.9901 19.2499 23.9662 18.4488 25.1082 17.9758C26.2503 17.5027 27.5069 17.3789 28.7193 17.6201C29.9317 17.8613 31.0453 18.4565 31.9194 19.3306C32.7935 20.2047 33.3887 21.3183 33.6299 22.5307C33.8711 23.7431 33.7473 24.9997 33.2742 26.1418C32.8012 27.2838 32.0001 28.2599 30.9723 28.9467C29.9445 29.6334 28.7361 30 27.5 30V33.75M27.5 41.25V42.5" stroke="white" stroke-width="2" stroke-linecap="round" stroke-linejoin="round"/>
</svg>
