<svg width="76" height="61" viewBox="0 0 76 61" fill="none" xmlns="http://www.w3.org/2000/svg">
<path d="M7.6 12.3498V22.7998H19V11.3998H8.55C8.0275 11.3998 7.6 11.8273 7.6 12.3498ZM64.8375 22.7998L55.2306 11.3998H45.6V22.7998H64.8375ZM38 22.7998V11.3998H26.6V22.7998H38ZM70.3 45.5998H68.4C68.4 51.8936 63.2938 56.9998 57 56.9998C50.7062 56.9998 45.6 51.8936 45.6 45.5998H30.4C30.4 51.8936 25.2937 56.9998 19 56.9998C12.7063 56.9998 7.6 51.8936 7.6 45.5998H5.7C2.55312 45.5998 0 43.0467 0 39.8998V12.3498C0 7.62355 3.82375 3.7998 8.55 3.7998H55.2306C57.475 3.7998 59.6006 4.78543 61.0494 6.5073L74.2188 22.1467C75.3706 23.5123 76 25.2461 76 27.0392V39.8998C76 43.0467 73.4469 45.5998 70.3 45.5998ZM62.7 45.5998C62.7 44.0881 62.0995 42.6383 61.0305 41.5693C59.9615 40.5003 58.5117 39.8998 57 39.8998C55.4883 39.8998 54.0384 40.5003 52.9695 41.5693C51.9005 42.6383 51.3 44.0881 51.3 45.5998C51.3 47.1115 51.9005 48.5614 52.9695 49.6303C54.0384 50.6993 55.4883 51.2998 57 51.2998C58.5117 51.2998 59.9615 50.6993 61.0305 49.6303C62.0995 48.5614 62.7 47.1115 62.7 45.5998ZM19 51.2998C20.5117 51.2998 21.9616 50.6993 23.0305 49.6303C24.0995 48.5614 24.7 47.1115 24.7 45.5998C24.7 44.0881 24.0995 42.6383 23.0305 41.5693C21.9616 40.5003 20.5117 39.8998 19 39.8998C17.4883 39.8998 16.0384 40.5003 14.9695 41.5693C13.9005 42.6383 13.3 44.0881 13.3 45.5998C13.3 47.1115 13.9005 48.5614 14.9695 49.6303C16.0384 50.6993 17.4883 51.2998 19 51.2998Z" fill="#FCB303"/>
</svg>
