<svg width="68" height="68" viewBox="0 0 68 68" fill="none" xmlns="http://www.w3.org/2000/svg">
<path d="M51.9293 63.7502C49.3368 63.7502 45.6951 62.8126 40.2418 59.7658C33.6105 56.0471 28.4813 52.6139 21.8858 46.0357C15.5268 39.6806 12.4322 35.5661 8.10122 27.685C3.2084 18.7866 4.04247 14.1222 4.97481 12.1287C6.08512 9.74601 7.72403 8.32093 9.84239 6.90648C11.0456 6.11815 12.3189 5.44238 13.6461 4.88773C13.7789 4.83062 13.9025 4.77617 14.0127 4.72703C14.6701 4.43086 15.6662 3.98328 16.9279 4.4614C17.77 4.7775 18.5217 5.42429 19.6984 6.5864C22.1116 8.9664 25.4093 14.2669 26.6259 16.8701C27.4427 18.6245 27.9832 19.7826 27.9846 21.0816C27.9846 22.6023 27.2196 23.775 26.2912 25.0407C26.1172 25.2784 25.9446 25.5055 25.7772 25.726C24.7665 27.0541 24.5447 27.438 24.6908 28.1233C24.987 29.5005 27.1957 33.6005 30.8254 37.2223C34.4552 40.8441 38.4369 42.9133 39.8195 43.2081C40.534 43.3608 40.9258 43.1297 42.2964 42.0832C42.493 41.9331 42.6949 41.7777 42.9061 41.6223C44.3218 40.5691 45.4401 39.8241 46.925 39.8241H46.9329C48.2252 39.8241 49.3315 40.3845 51.1643 41.3089C53.555 42.5148 59.0149 45.7701 61.4095 48.1859C62.5743 49.36 63.2237 50.109 63.5411 50.9497C64.0193 52.2155 63.569 53.2076 63.2755 53.8716C63.2264 53.9819 63.1719 54.1027 63.1148 54.2369C62.5558 55.5617 61.876 56.8323 61.0841 58.0326C59.6723 60.1444 58.2419 61.7793 55.8539 62.8909C54.6277 63.471 53.2857 63.7648 51.9293 63.7502Z" fill="#FCB303"/>
</svg>
