<svg width="76" height="76" viewBox="0 0 76 76" fill="none" xmlns="http://www.w3.org/2000/svg">
<path d="M37.9997 6.33325C55.4892 6.33325 69.6663 20.5104 69.6663 37.9999C69.6663 55.4894 55.4892 69.6666 37.9997 69.6666C20.5102 69.6666 6.33301 55.4894 6.33301 37.9999C6.33301 20.5104 20.5102 6.33325 37.9997 6.33325ZM37.9997 50.6666C37.1598 50.6666 36.3544 51.0002 35.7605 51.5941C35.1666 52.1879 34.833 52.9934 34.833 53.8332C34.833 54.6731 35.1666 55.4786 35.7605 56.0724C36.3544 56.6663 37.1598 56.9999 37.9997 56.9999C38.8395 56.9999 39.645 56.6663 40.2388 56.0724C40.8327 55.4786 41.1663 54.6731 41.1663 53.8332C41.1663 52.9934 40.8327 52.1879 40.2388 51.5941C39.645 51.0002 38.8395 50.6666 37.9997 50.6666ZM37.9997 20.5833C34.9552 20.5833 32.0354 21.7927 29.8827 23.9454C27.7299 26.0982 26.5205 29.018 26.5205 32.0624C26.5205 32.9023 26.8541 33.7077 27.448 34.3016C28.0419 34.8955 28.8473 35.2291 29.6872 35.2291C30.527 35.2291 31.3325 34.8955 31.9263 34.3016C32.5202 33.7077 32.8538 32.9023 32.8538 32.0624C32.8549 31.1284 33.1101 30.2122 33.5923 29.4122C34.0744 28.6122 34.7651 27.9585 35.5905 27.5212C36.4158 27.0839 37.3447 26.8794 38.2774 26.9299C39.21 26.9803 40.1114 27.2836 40.8849 27.8073C41.6583 28.331 42.2746 29.0553 42.6677 29.9027C43.0607 30.75 43.2158 31.6883 43.1162 32.617C43.0165 33.5457 42.666 34.4298 42.1022 35.1745C41.5383 35.9192 40.7824 36.4963 39.9155 36.8441C37.7748 37.6991 34.833 39.8904 34.833 43.5416V44.3333C34.833 45.1731 35.1666 45.9786 35.7605 46.5724C36.3544 47.1663 37.1598 47.4999 37.9997 47.4999C38.8395 47.4999 39.645 47.1663 40.2388 46.5724C40.8327 45.9786 41.1663 45.1731 41.1663 44.3333C41.1663 43.5606 41.3247 43.1742 41.9928 42.8449L42.2683 42.7183C44.7409 41.7236 46.7905 39.8998 48.0657 37.5595C49.3409 35.2192 49.7622 32.5082 49.2576 29.8913C48.7529 27.2744 47.3536 24.9145 45.2996 23.2162C43.2456 21.518 40.6648 20.5871 37.9997 20.5833Z" fill="#FFD700"/>
</svg>
