<svg width="76" height="76" viewBox="0 0 76 76" fill="none" xmlns="http://www.w3.org/2000/svg">
<path d="M4.75 38C4.75 19.6365 19.6365 4.75 38 4.75C56.3635 4.75 71.25 19.6365 71.25 38C71.25 56.3635 56.3635 71.25 38 71.25C19.6365 71.25 4.75 56.3635 4.75 38ZM28.5 35.625C29.7598 35.625 30.968 35.1246 31.8588 34.2338C32.7496 33.343 33.25 32.1348 33.25 30.875C33.25 29.6152 32.7496 28.407 31.8588 27.5162C30.968 26.6254 29.7598 26.125 28.5 26.125C27.2402 26.125 26.032 26.6254 25.1412 27.5162C24.2504 28.407 23.75 29.6152 23.75 30.875C23.75 32.1348 24.2504 33.343 25.1412 34.2338C26.032 35.1246 27.2402 35.625 28.5 35.625ZM52.25 30.875C52.25 29.6152 51.7496 28.407 50.8588 27.5162C49.968 26.6254 48.7598 26.125 47.5 26.125C46.2402 26.125 45.032 26.6254 44.1412 27.5162C43.2504 28.407 42.75 29.6152 42.75 30.875C42.75 32.1348 43.2504 33.343 44.1412 34.2338C45.032 35.1246 46.2402 35.625 47.5 35.625C48.7598 35.625 49.968 35.1246 50.8588 34.2338C51.7496 33.343 52.25 32.1348 52.25 30.875ZM22.6884 45.3768C22.1255 45.6585 21.6975 46.1523 21.4984 46.7495C21.2993 47.3467 21.3455 47.9985 21.6267 48.5616V48.5688L21.6315 48.5735L21.6386 48.5877L21.6576 48.6234C21.7321 48.7645 21.8113 48.9032 21.8951 49.039C22.0495 49.2931 22.2751 49.6375 22.5744 50.0365C23.3871 51.1102 24.331 52.078 25.384 52.9174C28.0012 55.0121 32.0815 57 38 57C43.9185 57 47.9987 55.0121 50.616 52.915C51.6687 52.0771 52.6125 51.1109 53.4256 50.0389C53.7644 49.5894 54.0707 49.1163 54.3424 48.6234L54.3614 48.5877L54.3685 48.5735L54.3732 48.5664V48.5616C54.6348 48.0025 54.6684 47.3634 54.4669 46.7799C54.2653 46.1965 53.8445 45.7144 53.2936 45.4358C52.7427 45.1573 52.105 45.1042 51.5156 45.2878C50.9262 45.4714 50.4315 45.8772 50.1363 46.4194L50.1268 46.436L50.046 46.5738C49.9167 46.786 49.7764 46.9913 49.6256 47.1889C49.2266 47.7232 48.5806 48.4619 47.6496 49.2076C45.8138 50.6754 42.7666 52.25 38 52.25C33.2334 52.25 30.1863 50.6754 28.3504 49.21C27.6104 48.6209 26.9466 47.9419 26.3744 47.1889C26.1924 46.9487 26.0258 46.6973 25.8756 46.436L25.8661 46.4194C25.5814 45.8612 25.0877 45.4382 24.4924 45.2425C23.8972 45.0468 23.2488 45.0942 22.6884 45.3744" fill="#FFD700"/>
</svg>
