<svg width="64" height="64" viewBox="0 0 64 64" fill="none" xmlns="http://www.w3.org/2000/svg">
<path d="M22.4001 16.6401C24.0974 16.6401 25.7253 17.3144 26.9255 18.5147C28.1258 19.7149 28.8001 21.3428 28.8001 23.0401C28.8001 24.2241 28.4481 25.3121 27.9041 26.2401C27.9041 26.2401 25.6001 25.6001 22.4001 25.6001C19.2001 25.6001 16.8961 26.2401 16.8961 26.2401C16.3521 25.3121 16.0001 24.2241 16.0001 23.0401C16.0001 21.3428 16.6743 19.7149 17.8746 18.5147C19.0748 17.3144 20.7027 16.6401 22.4001 16.6401ZM41.6001 16.6401C45.1521 16.6401 48.0001 19.4881 48.0001 23.0401C48.0001 24.2241 47.6481 25.3121 47.1041 26.2401C47.1041 26.2401 44.8001 25.6001 41.6001 25.6001C38.4001 25.6001 36.0961 26.2401 36.0961 26.2401C35.5521 25.3121 35.2001 24.2241 35.2001 23.0401C35.2001 19.4881 38.0481 16.6401 41.6001 16.6401ZM32.0001 60.4801C37.8045 60.4847 43.4648 58.6729 48.1877 55.2986C52.9105 51.9243 56.4591 47.1567 58.3361 41.6641L54.1121 40.1921C50.8801 49.6641 41.9841 56.0001 32.0001 56.0001C22.0161 56.0001 13.1201 49.6641 9.88806 40.1921L5.66406 41.6641C7.54098 47.1567 11.0896 51.9243 15.8124 55.2986C20.5353 58.6729 26.1956 60.4847 32.0001 60.4801Z" fill="#453069"/>
</svg>
